<svg width="212" height="55" viewBox="0 0 212 55" fill="none" xmlns="http://www.w3.org/2000/svg">
<path d="M75.84 16.16V19.56C74.6 18.64 72.4 17.08 69.64 17.08C65.32 17.08 64.56 20.28 64.56 21.28C64.56 24.04 67.32 25.44 69.72 26.64C75.04 29.28 76.96 30.84 76.96 34.88C76.96 40.04 72.56 42.36 69 42.36C66.44 42.36 63.96 41.36 61.84 39.88V36.2C63.28 37.64 65.88 39.64 68.92 39.64C72.76 39.64 74 36.72 74 35.08C74 33.36 73.48 31.72 67.88 29.08C63.28 26.92 61.6 24.64 61.6 21.6C61.6 17.32 65.12 14.36 69.68 14.36C72.72 14.36 74.76 15.52 75.84 16.16ZM95.1297 24.04L82.0497 51.2H79.0897L85.2897 38.32L78.0097 24.04H81.0097L86.7297 35.36L92.1297 24.04H95.1297ZM97.7953 24.04H100.555V26.76C101.875 25 103.635 23.68 106.195 23.68C110.235 23.68 112.635 26.64 112.635 31.28V42H109.875V31.52C109.875 28.48 108.715 26.12 105.555 26.12C104.515 26.12 102.235 26.44 100.555 29.28V42H97.7953V24.04ZM115.283 26.48V26.04L121.123 19.84V24.04H126.523V26.48H121.123V35.88C121.123 38.2 121.283 39.8 123.803 39.8C125.203 39.8 126.083 39.36 127.443 38.72V41.32C126.683 41.68 125.203 42.36 123.243 42.36C119.643 42.36 118.363 39.88 118.363 37V26.48H115.283ZM130.022 14.72H132.782V26.76C134.102 25 135.862 23.68 138.422 23.68C142.462 23.68 144.862 26.64 144.862 31.28V42H142.102V31.52C142.102 28.48 140.942 26.12 137.782 26.12C136.742 26.12 134.462 26.44 132.782 29.28V42H130.022V14.72ZM153.309 14.72V39.36H166.189V42H150.309V14.72H153.309ZM183.486 38.84V40.72C181.246 42.32 180.406 42.36 179.926 42.36C178.446 42.36 178.126 41.16 177.966 40.32C175.726 42 174.326 42.36 172.726 42.36C170.206 42.36 168.086 40.44 168.086 37.8C168.086 34.88 170.486 32.52 177.926 31.2V29.6C177.926 28.44 177.726 26.12 174.366 26.12C172.006 26.12 170.326 27.32 168.766 28.76V25.88C169.646 25.12 171.686 23.68 174.606 23.68C179.726 23.68 180.686 27.28 180.686 29.32V39.16C180.686 39.92 180.766 40.12 181.166 40.12C181.526 40.12 182.406 39.72 183.486 38.84ZM177.926 38.44V33C173.326 33.84 170.846 35.36 170.846 37.6C170.846 39.76 172.846 40.36 173.886 40.36C175.806 40.36 177.246 39.08 177.926 38.44ZM186.545 41V14.72H189.305V25.96C190.185 25.28 192.025 23.68 194.985 23.68C200.025 23.68 202.865 28 202.865 32.6C202.865 38.48 199.145 42.36 193.185 42.36C190.905 42.36 188.625 41.88 186.545 41ZM189.305 28.76V39.2C191.345 39.92 193.065 39.92 193.425 39.92C197.185 39.92 200.025 36.92 200.025 32.84C200.025 29 197.545 26.12 194.425 26.12C193.105 26.12 191.105 26.8 189.305 28.76Z" fill="#739BA6"/>
<g clip-path="url(#clip0_495_404)">
<rect x="5" y="7" width="41.4635" height="41.4635" rx="2.22126" fill="#E75114"/>
<path d="M27.4174 40.2534L31.3701 37.7594C31.6954 37.5541 32.0377 37.7361 32.3969 38.3054C32.7561 38.8747 32.7731 39.262 32.4477 39.4673L28.4951 41.9613C27.0963 42.844 25.8936 43.1366 24.8872 42.8392C23.8706 42.5255 22.885 41.6123 21.9305 40.0996L13.5247 26.7778C13.2886 26.4037 13.4959 26.0113 14.1465 25.6008C14.7972 25.1903 15.2405 25.172 15.4766 25.5462L23.8824 38.868C24.4777 39.8114 25.0368 40.391 25.5596 40.6069C26.0987 40.8126 26.718 40.6947 27.4174 40.2534Z" fill="#E3E0DE"/>
<path d="M29.7635 33.8696L33.7161 31.3756C34.0415 31.1703 34.3837 31.3523 34.743 31.9216C35.1022 32.4909 35.1191 32.8782 34.7938 33.0835L30.8412 35.5775C29.4423 36.4602 28.2397 36.7528 27.2333 36.4554C26.2167 36.1417 25.2311 35.2285 24.2766 33.7158L15.8707 20.394C15.6347 20.0199 15.842 19.6276 16.4926 19.217C17.1432 18.8065 17.5866 18.7883 17.8226 19.1624L26.2285 32.4842C26.8238 33.4276 27.3829 34.0073 27.9057 34.2232C28.4448 34.4288 29.0641 34.3109 29.7635 33.8696Z" fill="#E3E0DE"/>
<path d="M31.9785 27.5151L35.9311 25.0211C36.2564 24.8158 36.5987 24.9978 36.9579 25.5671C37.3171 26.1364 37.3341 26.5237 37.0088 26.729L33.0562 29.223C31.6573 30.1057 30.4547 30.3983 29.4483 30.1009C28.4316 29.7872 27.4461 28.874 26.4916 27.3613L18.0857 14.0395C17.8496 13.6654 18.0569 13.2731 18.7076 12.8625C19.3582 12.452 19.8016 12.4338 20.0376 12.8079L28.4435 26.1297C29.0388 27.0731 29.5978 27.6528 30.1207 27.8687C30.6598 28.0743 31.279 27.9565 31.9785 27.5151Z" fill="#E3E0DE"/>
</g>
<defs>
<clipPath id="clip0_495_404">
<rect x="5" y="7" width="41.4635" height="41.4635" rx="2.22126" fill="white"/>
</clipPath>
</defs>
</svg>
