<svg width="12" height="13" viewBox="0 0 12 13" fill="none" xmlns="http://www.w3.org/2000/svg">
<path d="M6.50024 1.1355C6.22397 0.859227 5.77603 0.859227 5.49976 1.1355L0.997596 5.63767C0.72132 5.91394 0.72132 6.36187 0.997596 6.63815C1.27387 6.91442 1.7218 6.91442 1.99808 6.63815L6 2.63622L10.0019 6.63815C10.2782 6.91442 10.7261 6.91442 11.0024 6.63815C11.2787 6.36187 11.2787 5.91394 11.0024 5.63767L6.50024 1.1355ZM5.29255 12.2474C5.29255 12.6382 5.60929 12.9549 6 12.9549C6.39071 12.9549 6.70745 12.6382 6.70745 12.2474H5.29255ZM5.29255 1.63574L5.29255 12.2474H6.70745L6.70745 1.63574H5.29255Z" fill="white"/>
</svg>
